<svg id="Capa_1" enable-background="new 0 0 512 512" height="512" viewBox="0 0 512 512" width="512" xmlns="http://www.w3.org/2000/svg"><g><g><path d="m289.402 435.304-42.702-142.83-156.083-55.955-67.964 67.964c-20.204 20.204-20.204 52.96 0 73.164l100.637 100.638c7.867 7.867 18.537 12.287 29.663 12.287h63.805c11.126 0 21.796-4.42 29.663-12.287z" fill="#c5f4fc"/><path d="m67.59 422.584-44.937-44.937c-20.206-20.206-20.199-52.966 0-73.164l67.969-67.969 44.936 44.936-67.969 67.97c-20.198 20.199-20.206 52.958.001 73.164z" fill="#7dddfa"/><path d="m493.979 211.389-179.447-179.446c-14.028-14.028-36.772-14.028-50.801 0l-163.445 163.445c-14.028 14.028-14.028 36.772 0 50.801l179.447 179.447c14.028 14.028 36.772 14.028 50.801 0l163.445-163.446c14.028-14.028 14.028-36.772 0-50.801z" fill="#e696a6"/><path d="m141.512 287.414-41.224-41.224c-14.029-14.029-14.029-36.774 0-50.804l163.443-163.443c14.029-14.029 36.774-14.029 50.804 0l41.224 41.224c-14.022-14.022-36.767-14.022-50.796.007l-163.444 163.444c-14.029 14.029-14.029 36.774-.007 50.796z" fill="#e17888"/></g><path d="m499.281 206.083-179.448-179.439c-8.203-8.202-19.106-12.719-30.704-12.719s-22.501 4.517-30.702 12.719l-6.671 6.67c-2.93 2.929-2.93 7.677-.001 10.606s7.678 2.93 10.606.001l6.672-6.67c5.368-5.369 12.505-8.326 20.096-8.326s14.727 2.957 20.098 8.326l179.448 179.439c5.369 5.369 8.325 12.507 8.325 20.101 0 7.592-2.955 14.727-8.325 20.093l-163.451 163.45c-5.364 5.368-12.5 8.324-20.092 8.324-7.588 0-14.723-2.954-20.09-8.316l-179.45-179.459c-5.369-5.369-8.326-12.506-8.326-20.097 0-7.59 2.957-14.727 8.326-20.097l135.551-135.549c2.929-2.929 2.929-7.678 0-10.606-2.93-2.929-7.678-2.929-10.607 0l-135.549 135.549c-8.203 8.202-12.72 19.106-12.72 30.703 0 4.061.566 8.033 1.638 11.838l-66.557 66.559c-11.187 11.186-17.348 26.06-17.348 41.883 0 15.822 6.161 30.697 17.347 41.883l77.969 77.97c2.929 2.928 7.677 2.93 10.607 0 2.929-2.929 2.929-7.678 0-10.606l-77.969-77.97c-8.353-8.354-12.954-19.461-12.954-31.277s4.601-22.924 12.954-31.277l62.666-62.666 183.806 183.816c.005.005.01.009.015.014l4.353 4.353-37.678 37.677c-6.509 6.509-15.158 10.093-24.356 10.093h-63.81c-9.198 0-17.848-3.584-24.357-10.094l-1.521-1.52c-2.931-2.929-7.68-2.927-10.606.002-2.929 2.929-2.928 7.678.001 10.606l1.52 1.519c9.343 9.342 21.759 14.487 34.964 14.487h63.809c13.205 0 25.621-5.145 34.964-14.487l41.569-41.569c3.805 1.072 7.779 1.638 11.841 1.638 11.601 0 22.504-4.518 30.7-12.719l163.446-163.448c8.203-8.198 12.72-19.101 12.72-30.701 0-11.599-4.517-22.505-12.719-30.707z"/></g></svg>